<?xml version="1.0" standalone="no"?>
<!DOCTYPE svg PUBLIC "-//W3C//DTD SVG 20010904//EN"
 "http://www.w3.org/TR/2001/REC-SVG-20010904/DTD/svg10.dtd">
<svg version="1.0" xmlns="http://www.w3.org/2000/svg"
 width="1000.000000pt" height="1000.000000pt" viewBox="0 0 1000.000000 1000.000000"
 preserveAspectRatio="xMidYMid meet">
<metadata>
Created by potrace 1.14, written by Peter Selinger 2001-2017
</metadata>
<g transform="translate(0.000000,1000.000000) scale(0.100000,-0.100000)"
fill="#000000" stroke="none">
<path d="M3847 9076 c-21 -6 -35 -14 -32 -18 4 -3 -4 -9 -16 -13 -24 -8 -124
-70 -146 -92 -7 -6 -13 -17 -13 -23 0 -6 -8 -14 -17 -17 -22 -8 -44 -31 -103
-103 -25 -30 -47 -57 -50 -60 -17 -17 -78 -101 -150 -210 -45 -69 -96 -138
-111 -154 -16 -15 -29 -37 -29 -47 0 -11 -9 -28 -20 -39 -11 -11 -20 -24 -20
-29 0 -14 -100 -173 -121 -194 -11 -10 -19 -24 -19 -33 0 -8 -12 -33 -27 -57
-15 -23 -33 -51 -39 -62 -6 -11 -32 -56 -58 -100 -25 -44 -46 -87 -46 -95 0
-9 -4 -20 -9 -25 -5 -6 -46 -82 -92 -170 -45 -88 -86 -162 -90 -165 -7 -5 -41
-76 -88 -185 -12 -27 -29 -57 -37 -67 -9 -9 -13 -21 -10 -27 7 -11 -42 -115
-84 -176 -61 -88 -199 -208 -298 -259 -135 -69 -383 -121 -802 -166 -411 -45
-623 -123 -796 -295 -81 -80 -104 -140 -104 -267 0 -87 3 -108 37 -228 43
-158 196 -492 284 -621 47 -70 129 -162 137 -154 3 3 21 -19 40 -48 47 -69
198 -218 294 -290 94 -70 204 -139 323 -201 50 -26 92 -54 95 -61 7 -19 106
-120 177 -182 99 -86 448 -284 473 -268 13 8 14 23 -15 -225 -75 -657 -83
-1125 -25 -1504 11 -72 16 -132 12 -135 -14 -10 -42 -89 -57 -163 -8 -38 -15
-119 -15 -179 0 -128 14 -167 85 -235 89 -85 166 -103 442 -104 312 0 358 16
652 233 102 75 145 112 197 167 72 78 94 106 100 128 3 12 9 22 13 22 13 0
176 113 246 170 95 78 206 187 299 295 43 49 85 90 94 90 35 0 155 79 268 174
67 56 81 66 139 101 109 66 155 83 220 83 99 0 154 -22 490 -191 707 -356 788
-392 1185 -530 63 -22 162 -56 220 -77 252 -87 454 -128 640 -128 115 -1 145
3 205 22 39 13 74 27 80 32 5 5 17 9 27 9 10 0 18 4 18 9 0 5 8 12 18 15 30
10 82 67 108 117 25 51 35 87 65 249 19 107 22 119 59 275 33 139 37 282 10
391 -36 149 -55 196 -161 406 -21 42 -39 84 -39 93 0 8 -4 15 -10 15 -12 0
-80 59 -80 70 0 5 21 11 48 13 l47 3 -52 2 c-51 2 -53 3 -53 31 0 16 -4 31 -8
33 -25 10 -52 70 -52 114 0 38 -5 53 -27 76 -23 25 -34 28 -87 28 -56 0 -59 1
-40 15 29 19 26 66 -4 81 -12 6 -34 21 -47 34 -14 13 -31 20 -40 17 -36 -15
-61 14 -127 146 -79 158 -98 219 -97 306 0 79 10 133 39 226 12 39 24 81 27
95 3 17 26 39 71 70 269 182 520 446 676 713 32 54 60 96 63 93 9 -8 98 110
132 174 35 66 142 331 181 450 61 184 100 374 100 492 0 195 -90 398 -245 553
-57 56 -164 149 -178 154 -7 2 -28 16 -47 31 -32 25 -289 160 -305 160 -4 0
-21 6 -38 14 -106 48 -327 104 -500 126 -97 12 -389 13 -454 1 -26 -5 -79 -14
-118 -21 -201 -36 -329 -78 -617 -204 -20 -9 -39 -16 -43 -16 -4 0 -21 -6 -38
-14 -18 -7 -50 -18 -72 -24 -22 -6 -59 -15 -81 -21 -52 -14 -184 -14 -184 -1
0 5 -35 63 -77 128 -43 65 -82 126 -88 135 -5 9 -35 53 -66 99 -31 46 -68 101
-82 123 -46 71 -150 220 -156 225 -3 3 -26 32 -51 65 -131 176 -363 429 -531
578 -110 99 -270 187 -374 206 -76 14 -279 12 -328 -3z"/>
<path d="M6800 8904 c-119 -77 -169 -148 -170 -236 0 -47 0 -48 33 -48 46 0
141 49 222 115 75 61 78 68 54 143 -9 29 -50 62 -76 62 -5 0 -33 -16 -63 -36z"/>
<path d="M1775 8044 c-6 -32 -9 -34 -48 -36 -60 -2 -65 -2 -73 -11 -4 -4 22
-7 58 -7 44 0 65 -4 66 -12 8 -70 18 -84 110 -175 53 -51 99 -93 103 -93 4 0
20 -5 36 -12 58 -24 97 -26 101 -5 2 10 25 38 52 63 43 40 48 48 39 68 -6 12
-25 28 -43 34 -17 6 -40 25 -49 42 -10 16 -26 30 -36 30 -10 0 -29 10 -43 23
-56 51 -105 83 -148 94 -132 34 -117 34 -125 -3z"/>
<path d="M9490 4471 c-8 -5 -76 -10 -150 -12 -80 -1 -147 -7 -165 -15 -16 -7
-49 -18 -72 -25 l-43 -12 0 -74 0 -74 113 5 c61 3 178 8 258 12 l147 5 -5 62
c-6 85 -6 84 -55 92 -25 5 -37 10 -28 14 8 3 16 12 18 19 2 14 2 14 -18 3z"/>
<path d="M867 3152 c-54 -30 -187 -157 -187 -178 0 -8 10 -35 22 -60 21 -45
22 -46 58 -40 114 18 240 153 240 257 l0 49 -42 -1 c-27 0 -61 -10 -91 -27z"/>
<path d="M5085 1955 c-27 -8 -54 -14 -59 -15 -13 0 2 -81 54 -286 27 -105 52
-221 56 -258 6 -55 11 -70 32 -86 30 -24 82 -26 122 -5 29 15 30 17 30 93 0
86 -52 303 -112 472 -38 106 -41 108 -123 85z"/>
</g>
</svg>
